# xmcd CD database file
#
# Track frame offsets:
#	150
#	15810
#	49605
#	79920
#	102947
#	126387
#	156025
#	176937
#	205087
#	252400
#
# Disc length: 3706 seconds
#
# Revision: 0
# Processed by: cddbd v1.5.1PL0 Copyright (c) Steve Scherf et al.
# Submitted via: CDex 1.51
#
DISCID=7d0e780a
DTITLE=Tanaka Nobumasa Kartell - ODD OR EVEN
DYEAR=2000
DGENRE=Jazz
TTITLE0=Vamp
TTITLE1=Flower abstraction vi
TTITLE2=Battle Front Suite i
TTITLE3=Holy Spirits
TTITLE4=Little Circle Kids
TTITLE5=魔女の杖
TTITLE6=Flower Abstraction ii
TTITLE7=Nardis
TTITLE8=Tea For Two
TTITLE9=雨の日と月曜日は
EXTD=YEAR: 2000
EXTT0=
EXTT1=
EXTT2=
EXTT3=
EXTT4=
EXTT5=
EXTT6=
EXTT7=
EXTT8=
EXTT9=
PLAYORDER=
